<svg width="20" height="20" viewBox="0 0 20 20" fill="none" xmlns="http://www.w3.org/2000/svg">
<path d="M11.666 9.16659C11.666 8.94557 11.7538 8.73361 11.9101 8.57733C12.0664 8.42105 12.2783 8.33325 12.4993 8.33325C12.7204 8.33325 12.9323 8.42105 13.0886 8.57733C13.2449 8.73361 13.3327 8.94557 13.3327 9.16659V10.8333C13.3327 11.0543 13.2449 11.2662 13.0886 11.4225C12.9323 11.5788 12.7204 11.6666 12.4993 11.6666C12.2783 11.6666 12.0664 11.5788 11.9101 11.4225C11.7538 11.2662 11.666 11.0543 11.666 10.8333V9.16659Z" stroke="#F9FBF9" stroke-width="1.5"/>
<path d="M11.6786 14.1666L12.3036 14.1683V14.1666H11.6786ZM11.6786 5.83325H12.3036V5.83159L11.6786 5.83325ZM12.2986 15.8374L12.3036 14.1683L11.0536 14.1649L11.0486 15.8341L12.2986 15.8374ZM12.5136 13.9583C12.6311 13.9583 12.7244 14.0533 12.7244 14.1666H13.9744C13.9744 13.3599 13.3186 12.7083 12.5136 12.7083V13.9583ZM12.5136 12.7083C11.7086 12.7083 11.0536 13.3599 11.0536 14.1666H12.3036C12.3036 14.0533 12.3961 13.9583 12.5136 13.9583V12.7083ZM8.32944 3.95825H11.2544V2.70825H8.32944V3.95825ZM10.8403 16.0416H8.32944V17.2916H10.8403V16.0416ZM8.32944 16.0416C6.73694 16.0416 5.60444 16.0399 4.74611 15.9249C3.90444 15.8124 3.42027 15.6008 3.06611 15.2474L2.18361 16.1333C2.80861 16.7566 3.60194 17.0333 4.58027 17.1649C5.54194 17.2941 6.77194 17.2924 8.33027 17.2924L8.32944 16.0416ZM8.32944 2.70825C6.77111 2.70825 5.54111 2.70659 4.57944 2.83575C3.60111 2.96742 2.80861 3.24409 2.18361 3.86742L3.06694 4.75242C3.42027 4.39909 3.90527 4.18742 4.74611 4.07492C5.60444 3.95992 6.73694 3.95825 8.32944 3.95825V2.70825ZM2.15611 9.09075C2.47777 9.26992 2.69194 9.61075 2.69194 9.99992H3.94194C3.94188 9.59202 3.83294 9.19153 3.62639 8.8398C3.41983 8.48807 3.12314 8.19784 2.76694 7.99909L2.15611 9.09075ZM2.30027 7.51659C2.36527 5.96992 2.57611 5.24075 3.06694 4.75242L2.18361 3.86742C1.32527 4.72409 1.11694 5.89992 1.05027 7.46492L2.30027 7.51659ZM2.69194 9.99992C2.69194 10.3891 2.47777 10.7299 2.15611 10.9099L2.76611 12.0016C3.12258 11.8029 3.41952 11.5126 3.62624 11.1607C3.83295 10.8088 3.94194 10.408 3.94194 9.99992H2.69194ZM1.05111 12.5349C1.11777 14.0983 1.32611 15.2766 2.18361 16.1324L3.06694 15.2474C2.57611 14.7591 2.36527 14.0291 2.30027 12.4824L1.05111 12.5349ZM17.3086 9.99992C17.3086 9.61075 17.5228 9.26992 17.8444 9.09075L17.2344 7.99909C16.8781 8.19774 16.5812 8.48792 16.3745 8.83965C16.1678 9.19139 16.0588 9.59194 16.0586 9.99992H17.3086ZM18.9494 7.46492C18.8828 5.90159 18.6744 4.72325 17.8169 3.86742L16.9336 4.75242C17.4236 5.24075 17.6353 5.97075 17.7003 7.51742L18.9494 7.46492ZM17.8444 10.9099C17.6821 10.8198 17.5469 10.6879 17.4527 10.5279C17.3584 10.3679 17.3087 10.1856 17.3086 9.99992H16.0586C16.0586 10.8616 16.5344 11.6099 17.2344 12.0008L17.8444 10.9099ZM17.7003 12.4824C17.6353 14.0291 17.4244 14.7591 16.9336 15.2474L17.8169 16.1324C18.6753 15.2766 18.8836 14.0991 18.9494 12.5349L17.7003 12.4824ZM17.2344 12.0008C17.4711 12.1333 17.6261 12.2199 17.7303 12.2858C17.7819 12.3183 17.8053 12.3358 17.8119 12.3408C17.8236 12.3508 17.7811 12.3208 17.7411 12.2491L18.8328 11.6383C18.7751 11.5382 18.699 11.45 18.6086 11.3783C18.5414 11.3237 18.4707 11.2736 18.3969 11.2283C18.2578 11.1399 18.0669 11.0341 17.8444 10.9091L17.2344 12.0008ZM18.9494 12.5349C18.9553 12.3924 18.9619 12.2449 18.9569 12.1216C18.9535 11.9529 18.9107 11.7874 18.8319 11.6383L17.7411 12.2483C17.6994 12.1733 17.7053 12.1216 17.7078 12.1766C17.7089 12.1988 17.7089 12.236 17.7078 12.2883L17.7003 12.4824L18.9494 12.5349ZM17.8444 9.09075C18.0669 8.96575 18.2578 8.85992 18.3969 8.77159C18.47 8.72528 18.5407 8.67522 18.6086 8.62159C18.6987 8.54973 18.7745 8.46152 18.8319 8.36159L17.7411 7.75159C17.7811 7.67909 17.8236 7.64909 17.8111 7.65909C17.7853 7.67899 17.7583 7.69735 17.7303 7.71409C17.6261 7.78075 17.4719 7.86659 17.2344 7.99909L17.8444 9.09075ZM17.7003 7.51742L17.7078 7.71075C17.7089 7.76298 17.7089 7.8002 17.7078 7.82242C17.7053 7.87742 17.6994 7.82575 17.7411 7.75075L18.8328 8.36075C18.9112 8.2115 18.9537 8.046 18.9569 7.87742C18.9599 7.73959 18.9571 7.60169 18.9486 7.46409L17.7003 7.51742ZM2.15611 10.9091C1.93361 11.0341 1.74277 11.1391 1.60361 11.2274C1.52988 11.2728 1.45918 11.3229 1.39194 11.3774C1.30181 11.4493 1.22604 11.5383 1.16861 11.6383L2.25944 12.2474C2.21944 12.3199 2.17694 12.3499 2.18861 12.3399C2.19611 12.3341 2.21861 12.3174 2.27027 12.2849C2.37444 12.2183 2.52861 12.1324 2.76611 11.9999L2.15611 10.9091ZM2.30027 12.4816L2.29277 12.2874C2.29153 12.2502 2.29153 12.213 2.29277 12.1758C2.29527 12.1208 2.30111 12.1724 2.25944 12.2474L1.16777 11.6374C1.08934 11.7867 1.04682 11.9522 1.04361 12.1208C1.03861 12.2441 1.04527 12.3916 1.05194 12.5341L2.30027 12.4816ZM2.76611 7.99825C2.52944 7.86575 2.37444 7.77909 2.27027 7.71325C2.24199 7.69655 2.21472 7.67818 2.18861 7.65825C2.17694 7.64825 2.21944 7.67825 2.25944 7.74992L1.16777 8.36075C1.23777 8.48409 1.33027 8.56909 1.39194 8.62075C1.45861 8.67575 1.53277 8.72575 1.60361 8.77075C1.74277 8.85909 1.93361 8.96492 2.15611 9.08992L2.76611 7.99825ZM1.05027 7.46492C1.04444 7.60742 1.03777 7.75492 1.04277 7.87825C1.04861 8.00325 1.06777 8.18409 1.16777 8.36159L2.25944 7.75159C2.30111 7.82659 2.29444 7.87825 2.29194 7.82325C2.29069 7.78604 2.29069 7.7488 2.29194 7.71159L2.29944 7.51742L1.05027 7.46492ZM12.3028 5.83159L12.2961 3.74659L11.0469 3.75075L11.0528 5.83492L12.3028 5.83159ZM12.5128 6.04159C12.4853 6.04181 12.458 6.03658 12.4325 6.02621C12.4071 6.01584 12.3839 6.00053 12.3644 5.98116C12.3449 5.96179 12.3294 5.93875 12.3188 5.91337C12.3082 5.88798 12.3028 5.86075 12.3028 5.83325H11.0528C11.0528 6.63992 11.7078 7.29159 12.5128 7.29159V6.04159ZM12.7253 5.83325C12.7253 5.94659 12.6319 6.04159 12.5144 6.04159V7.29159C13.3194 7.29159 13.9753 6.63992 13.9753 5.83325H12.7253ZM12.7253 3.76325V5.83325H13.9753V3.76325H12.7253ZM13.7586 3.97409C15.5819 4.02075 16.3994 4.21742 16.9353 4.75242L17.8186 3.86742C16.8911 2.94242 15.5794 2.77075 13.7903 2.72409L13.7586 3.97409ZM13.9753 3.76325C13.9753 3.87992 13.8786 3.97659 13.7586 3.97409L13.7903 2.72409C13.6517 2.72064 13.5137 2.74497 13.3847 2.79565C13.2556 2.84633 13.138 2.92232 13.0387 3.01916C12.9395 3.11601 12.8606 3.23173 12.8068 3.35952C12.7529 3.48731 12.7252 3.62459 12.7253 3.76325H13.9753ZM11.2544 3.95825C11.1993 3.95803 11.1474 3.93599 11.1085 3.89694C11.0696 3.85789 11.0478 3.80503 11.0478 3.74992L12.2978 3.74659C12.2969 3.4709 12.1868 3.2068 11.9915 3.01217C11.7962 2.81754 11.5318 2.70825 11.2561 2.70825L11.2544 3.95825ZM14.2211 17.2616C15.7836 17.1949 16.9619 16.9866 17.8178 16.1324L16.9336 15.2474C16.4453 15.7358 15.7144 15.9474 14.1694 16.0124L14.2211 17.2616ZM12.7253 14.1666V15.8141H13.9753V14.1666H12.7253ZM11.0494 15.8333C11.0494 15.9341 11.0494 16.0116 11.0469 16.0774C11.0453 16.1441 11.0419 16.1824 11.0386 16.2066C11.0353 16.2308 11.0344 16.2224 11.0436 16.1983C11.0598 16.1627 11.0821 16.1303 11.1094 16.1024L11.9919 16.9874C12.1525 16.8214 12.2529 16.6063 12.2769 16.3766C12.2994 16.2124 12.2978 16.0158 12.2986 15.8374L11.0494 15.8333ZM10.8403 17.2916C11.0186 17.2916 11.2161 17.2933 11.3803 17.2708C11.5628 17.2458 11.7953 17.1833 11.9919 16.9874L11.1086 16.1024C11.137 16.0752 11.17 16.0532 11.2061 16.0374C11.2294 16.0274 11.2378 16.0291 11.2144 16.0316C11.1712 16.0361 11.1279 16.0388 11.0844 16.0399C11.0178 16.0416 10.9403 16.0416 10.8403 16.0416V17.2916ZM14.1694 16.0124C14.0694 16.0166 13.9919 16.0199 13.9261 16.0208C13.8603 16.0216 13.8219 16.0208 13.7994 16.0183C13.7769 16.0158 13.7869 16.0141 13.8119 16.0241C13.8428 16.0358 13.8786 16.0574 13.9111 16.0874L13.0461 16.9899C13.2494 17.1849 13.4869 17.2433 13.6769 17.2616C13.8453 17.2783 14.0428 17.2691 14.2211 17.2616L14.1694 16.0124ZM12.7253 15.8141C12.7253 15.9958 12.7236 16.1974 12.7469 16.3666C12.7728 16.5549 12.8403 16.7924 13.0461 16.9899L13.9111 16.0874C13.9444 16.1191 13.9661 16.1549 13.9794 16.1849C13.9894 16.2099 13.9878 16.2183 13.9853 16.1949C13.9807 16.1509 13.978 16.1067 13.9769 16.0624C13.9753 15.9958 13.9753 15.9166 13.9753 15.8141H12.7253Z" fill="#F9FBF9"/>
</svg>
