<svg width="20" height="20" viewBox="0 0 20 20" fill="none" xmlns="http://www.w3.org/2000/svg">
<path d="M14.168 8.33325C15.5487 8.33325 16.668 7.21396 16.668 5.83325C16.668 4.45254 15.5487 3.33325 14.168 3.33325C12.7873 3.33325 11.668 4.45254 11.668 5.83325C11.668 7.21396 12.7873 8.33325 14.168 8.33325Z" stroke="#F9FBF9" stroke-linecap="round" stroke-linejoin="round"/>
<path d="M5.83398 16.6665C7.2147 16.6665 8.33398 15.5472 8.33398 14.1665C8.33398 12.7858 7.2147 11.6665 5.83398 11.6665C4.45327 11.6665 3.33398 12.7858 3.33398 14.1665C3.33398 15.5472 4.45327 16.6665 5.83398 16.6665Z" stroke="#F9FBF9" stroke-linecap="round" stroke-linejoin="round"/>
<path d="M11.6673 11.6666H16.6673V15.8333C16.6673 16.0543 16.5795 16.2662 16.4232 16.4225C16.267 16.5788 16.055 16.6666 15.834 16.6666H12.5007C12.2796 16.6666 12.0677 16.5788 11.9114 16.4225C11.7551 16.2662 11.6673 16.0543 11.6673 15.8333V11.6666ZM3.33398 3.33325H8.33398V7.49992C8.33398 7.72093 8.24619 7.93289 8.08991 8.08917C7.93363 8.24545 7.72166 8.33325 7.50065 8.33325H4.16732C3.9463 8.33325 3.73434 8.24545 3.57806 8.08917C3.42178 7.93289 3.33398 7.72093 3.33398 7.49992V3.33325Z" stroke="#F9FBF9" stroke-linecap="round" stroke-linejoin="round"/>
</svg>
