<svg width="20" height="20" viewBox="0 0 20 20" fill="none" xmlns="http://www.w3.org/2000/svg">
<path d="M9.84375 2.38211V10.0001C9.84375 10.1244 9.79436 10.2436 9.70646 10.3315C9.61855 10.4194 9.49932 10.4688 9.375 10.4688C9.25068 10.4688 9.13145 10.4194 9.04354 10.3315C8.95564 10.2436 8.90625 10.1244 8.90625 10.0001V2.38211L7.20625 4.08133C7.11739 4.16413 6.99986 4.2092 6.87842 4.20706C6.75699 4.20492 6.64112 4.15572 6.55524 4.06984C6.46935 3.98396 6.42016 3.86809 6.41802 3.74665C6.41587 3.62521 6.46095 3.50768 6.54375 3.41883L9.04375 0.918826C9.13164 0.831044 9.25078 0.781738 9.375 0.781738C9.49922 0.781738 9.61836 0.831044 9.70625 0.918826L12.2063 3.41883C12.2523 3.46174 12.2892 3.51349 12.3149 3.57099C12.3405 3.62849 12.3543 3.69056 12.3554 3.7535C12.3565 3.81644 12.3449 3.87896 12.3213 3.93732C12.2978 3.99569 12.2627 4.04871 12.2181 4.09322C12.1736 4.13774 12.1206 4.17283 12.0622 4.1964C12.0039 4.21998 11.9414 4.23156 11.8784 4.23045C11.8155 4.22934 11.7534 4.21556 11.6959 4.18994C11.6384 4.16432 11.5867 4.12738 11.5437 4.08133L9.84375 2.38211ZM14.8438 9.74148V7.50008C14.8438 7.21 14.7285 6.9318 14.5234 6.72668C14.3183 6.52156 14.0401 6.40633 13.75 6.40633H12.5C12.3757 6.40633 12.2565 6.45571 12.1685 6.54362C12.0806 6.63153 12.0312 6.75076 12.0312 6.87508C12.0312 6.9994 12.0806 7.11862 12.1685 7.20653C12.2565 7.29444 12.3757 7.34383 12.5 7.34383H13.75C13.7914 7.34383 13.8312 7.36029 13.8605 7.38959C13.8898 7.41889 13.9062 7.45864 13.9062 7.50008V14.2298C13.6218 13.7817 13.1732 13.4628 12.6566 13.3413C12.14 13.2198 11.5964 13.3052 11.142 13.5794C10.6876 13.8536 10.3586 14.2948 10.2253 14.8085C10.092 15.3222 10.1651 15.8677 10.4289 16.3282C10.4289 16.336 10.4375 16.343 10.4422 16.3509L12.1812 19.0071C12.2532 19.1014 12.3583 19.1649 12.4753 19.1848C12.5922 19.2047 12.7124 19.1795 12.8115 19.1143C12.9106 19.0491 12.9813 18.9487 13.0094 18.8334C13.0374 18.7181 13.0206 18.5965 12.9625 18.493L11.2344 15.8493C11.0907 15.5972 11.053 15.2984 11.1296 15.0186C11.2063 14.7387 11.3909 14.5008 11.643 14.3571C11.895 14.2134 12.1938 14.1757 12.4737 14.2524C12.7535 14.329 12.9915 14.5136 13.1352 14.7657C13.1392 14.7735 13.1436 14.7811 13.1484 14.7884L13.9844 16.0618C14.0399 16.1455 14.1209 16.2092 14.2153 16.2434C14.3097 16.2776 14.4127 16.2806 14.509 16.2519C14.6052 16.2232 14.6897 16.1643 14.75 16.084C14.8103 16.0036 14.8431 15.906 14.8438 15.8055V10.904C15.5254 11.4651 16.0748 12.1697 16.453 12.9675C16.8311 13.7653 17.0285 14.6367 17.0312 15.5196V18.7501C17.0312 18.8744 17.0806 18.9936 17.1685 19.0815C17.2565 19.1694 17.3757 19.2188 17.5 19.2188C17.6243 19.2188 17.7435 19.1694 17.8315 19.0815C17.9194 18.9936 17.9688 18.8744 17.9688 18.7501V15.5196C17.9652 14.3734 17.678 13.2459 17.1327 12.2376C16.5875 11.2294 15.8011 10.3719 14.8438 9.74148ZM6.25 6.40633H5C4.70992 6.40633 4.43172 6.52156 4.2266 6.72668C4.02148 6.9318 3.90625 7.21 3.90625 7.50008V15.6251C3.90625 15.7494 3.95564 15.8686 4.04354 15.9565C4.13145 16.0444 4.25068 16.0938 4.375 16.0938C4.49932 16.0938 4.61855 16.0444 4.70646 15.9565C4.79436 15.8686 4.84375 15.7494 4.84375 15.6251V7.50008C4.84375 7.45864 4.86021 7.41889 4.88951 7.38959C4.91882 7.36029 4.95856 7.34383 5 7.34383H6.25C6.37432 7.34383 6.49355 7.29444 6.58146 7.20653C6.66936 7.11862 6.71875 6.9994 6.71875 6.87508C6.71875 6.75076 6.66936 6.63153 6.58146 6.54362C6.49355 6.45571 6.37432 6.40633 6.25 6.40633Z" fill="#F9FBF9"/>
</svg>
