<svg width="20" height="24" viewBox="0 0 20 24" fill="none" xmlns="http://www.w3.org/2000/svg">
<path d="M5.5 3C3.57 3 2 4.57 2 6.5C2 8.43 3.57 10 5.5 10C7.43 10 9 8.43 9 6.5C9 4.57 7.43 3 5.5 3ZM5.5 8C4.67 8 4 7.33 4 6.5C4 5.67 4.67 5 5.5 5C6.33 5 7 5.67 7 6.5C7 7.33 6.33 8 5.5 8ZM14.5 12C12.57 12 11 13.57 11 15.5C11 17.43 12.57 19 14.5 19C16.43 19 18 17.43 18 15.5C18 13.57 16.43 12 14.5 12ZM14.5 17C13.67 17 13 16.33 13 15.5C13 14.67 13.67 14 14.5 14C15.33 14 16 14.67 16 15.5C16 16.33 15.33 17 14.5 17ZM3.41 19L2 17.59L16.59 3L18 4.41L3.41 19Z" fill="#3F43F5"/>
</svg>
