<svg width="20" height="20" viewBox="0 0 20 20" fill="none" xmlns="http://www.w3.org/2000/svg">
<path d="M14.94 16.3618H16.7217C16.8784 16.3642 17.0334 16.3287 17.1734 16.2583C17.3134 16.1878 17.4342 16.0845 17.5256 15.9571C17.617 15.8298 17.6762 15.6822 17.6981 15.527C17.7201 15.3718 17.7041 15.2136 17.6517 15.066C17.1974 14.0936 16.4781 13.2689 15.5765 12.6867C14.6749 12.1045 13.6273 11.7882 12.5542 11.7743M12.5542 9.47512C12.9552 9.47523 13.3523 9.39633 13.7229 9.24294C14.0934 9.08954 14.4301 8.86465 14.7137 8.58111C14.9973 8.29757 15.2223 7.96094 15.3758 7.59044C15.5293 7.21994 15.6083 6.82283 15.6083 6.42179C15.6094 6.02005 15.5312 5.62204 15.3782 5.25058C15.2252 4.87911 15.0004 4.54149 14.7167 4.25707C14.433 3.97265 14.0959 3.74701 13.7248 3.5931C13.3537 3.43918 12.9559 3.36001 12.5542 3.36012M7.78332 9.57095C8.70144 9.56875 9.58119 9.20242 10.2295 8.55235C10.8779 7.90229 11.2419 7.02157 11.2417 6.10345C11.2417 5.18603 10.8772 4.30617 10.2285 3.65745C9.57977 3.00873 8.69992 2.64429 7.78249 2.64429C6.86506 2.64429 5.98521 3.00873 5.33649 3.65745C4.68777 4.30617 4.32332 5.18603 4.32332 6.10345C4.32332 7.02157 4.68753 7.9022 5.33603 8.55211C5.98454 9.20202 6.86437 9.56813 7.78249 9.57012M11.6875 17.356C11.981 17.3556 12.2687 17.2739 12.5187 17.1201C12.7687 16.9662 12.9712 16.7462 13.1038 16.4843C13.2364 16.2224 13.294 15.929 13.27 15.6364C13.2461 15.3439 13.1417 15.0636 12.9683 14.8268C12.3609 14.0205 11.579 13.3621 10.6811 12.9009C9.78313 12.4397 8.79249 12.1876 7.78332 12.1635C6.77409 12.1876 5.7834 12.4399 4.88547 12.9013C3.98754 13.3626 3.20564 14.0212 2.59832 14.8276C2.42554 15.0645 2.32157 15.3445 2.29791 15.6368C2.27425 15.929 2.33182 16.2221 2.46425 16.4837C2.59668 16.7453 2.79882 16.9652 3.04836 17.1191C3.2979 17.273 3.58513 17.355 3.87832 17.356H11.6875Z" stroke="#F9FBF9" stroke-width="1.5" stroke-linecap="round" stroke-linejoin="round"/>
</svg>
