<svg width="20" height="20" viewBox="0 0 20 20" fill="none" xmlns="http://www.w3.org/2000/svg">
<path d="M18.125 15.625H16.875V14.375H17.5V11.875H15V12.5H13.75V11.25C13.75 11.0842 13.8158 10.9253 13.9331 10.8081C14.0503 10.6908 14.2092 10.625 14.375 10.625H18.125C18.2908 10.625 18.4497 10.6908 18.5669 10.8081C18.6842 10.9253 18.75 11.0842 18.75 11.25V15C18.75 15.1658 18.6842 15.3247 18.5669 15.4419C18.4497 15.5592 18.2908 15.625 18.125 15.625Z" fill="#F9FBF9"/>
<path d="M15 18.7499H11.25C11.0842 18.7499 10.9253 18.684 10.8081 18.5668C10.6908 18.4496 10.625 18.2907 10.625 18.1249V14.3749C10.625 14.2091 10.6908 14.0502 10.8081 13.933C10.9253 13.8157 11.0842 13.7499 11.25 13.7499H15C15.1658 13.7499 15.3247 13.8157 15.4419 13.933C15.5592 14.0502 15.625 14.2091 15.625 14.3749V18.1249C15.625 18.2907 15.5592 18.4496 15.4419 18.5668C15.3247 18.684 15.1658 18.7499 15 18.7499ZM11.875 17.4999H14.375V14.9999H11.875V17.4999ZM9.375 12.4111C8.9234 12.2935 8.51385 12.0515 8.19285 11.7127C7.87186 11.374 7.65228 10.952 7.55905 10.4947C7.46583 10.0374 7.50269 9.56319 7.66545 9.12581C7.82821 8.68843 8.11035 8.30545 8.47983 8.02036C8.84931 7.73527 9.29133 7.55949 9.75569 7.51298C10.22 7.46648 10.6881 7.55111 11.1068 7.75727C11.5255 7.96343 11.878 8.28285 12.1243 8.67927C12.3705 9.07569 12.5007 9.53321 12.5 9.9999H13.75C13.7507 9.28477 13.547 8.58435 13.1627 7.98123C12.7785 7.3781 12.2298 6.89741 11.5814 6.59584C10.933 6.29427 10.2118 6.1844 9.503 6.27918C8.79419 6.37395 8.12726 6.66943 7.58084 7.13076C7.03442 7.59209 6.63131 8.20005 6.41903 8.88294C6.20675 9.56582 6.19416 10.2952 6.38274 10.985C6.57132 11.6748 6.9532 12.2963 7.48337 12.7762C8.01354 13.2561 8.66988 13.5745 9.375 13.6936V12.4111Z" fill="#F9FBF9"/>
<path d="M18.0563 8.46875L16.6125 9.7375L15.725 8.85L17.2313 7.525L15.7563 4.975L13.6063 5.7C13.1024 5.2811 12.5321 4.94944 11.9188 4.71875L11.475 2.5H8.52502L8.08127 4.71875C7.46312 4.94314 6.88966 5.27537 6.38752 5.7L4.24377 4.975L2.76877 7.525L4.46877 9.01875C4.3532 9.66571 4.3532 10.328 4.46877 10.975L2.76877 12.475L4.24377 15.025L6.39377 14.3C6.89761 14.7189 7.46799 15.0506 8.08127 15.2812L8.52502 17.5H9.37502V18.75H8.52502C8.23598 18.7498 7.95595 18.6494 7.7326 18.4659C7.50925 18.2824 7.35638 18.0272 7.30002 17.7437L6.98127 16.1688C6.69794 16.0314 6.42438 15.8748 6.16252 15.7L4.64377 16.2125C4.51472 16.2549 4.37961 16.276 4.24377 16.275C4.02418 16.2767 3.80814 16.2197 3.61802 16.1098C3.4279 15.9999 3.27064 15.8411 3.16252 15.65L1.68752 13.1C1.54164 12.8494 1.48743 12.5558 1.53417 12.2696C1.58092 11.9835 1.72572 11.7224 1.94377 11.5312L3.14377 10.4813C3.13127 10.3188 3.12502 10.1625 3.12502 10C3.12502 9.8375 3.13752 9.68125 3.15002 9.525L1.94377 8.46875C1.72572 8.27758 1.58092 8.01654 1.53417 7.73035C1.48743 7.44416 1.54164 7.15062 1.68752 6.9L3.16252 4.35C3.27064 4.15887 3.4279 4.00013 3.61802 3.89024C3.80814 3.78034 4.02418 3.72329 4.24377 3.725C4.37961 3.72396 4.51472 3.74507 4.64377 3.7875L6.15627 4.3C6.4211 4.12649 6.69665 3.96993 6.98127 3.83125L7.30002 2.25625C7.35638 1.97276 7.50925 1.71756 7.7326 1.53409C7.95595 1.35063 8.23598 1.25023 8.52502 1.25H11.475C11.7641 1.25023 12.0441 1.35063 12.2674 1.53409C12.4908 1.71756 12.6437 1.97276 12.7 2.25625L13.0188 3.83125C13.3021 3.96857 13.5757 4.12519 13.8375 4.3L15.3563 3.7875C15.4853 3.74507 15.6204 3.72396 15.7563 3.725C15.9759 3.72329 16.1919 3.78034 16.382 3.89024C16.5721 4.00013 16.7294 4.15887 16.8375 4.35L18.3125 6.9C18.4584 7.15062 18.5126 7.44416 18.4659 7.73035C18.4191 8.01654 18.2743 8.27758 18.0563 8.46875Z" fill="#F9FBF9"/>
</svg>
