<svg width="20" height="20" viewBox="0 0 20 20" fill="none" xmlns="http://www.w3.org/2000/svg">
<g clip-path="url(#clip0_101_1713)">
<path d="M9.17185 17.5002H8.00352C5.01602 17.5002 3.52268 17.5002 2.59435 16.5543C1.66602 15.6085 1.66602 14.086 1.66602 11.0418C1.66602 7.99766 1.66602 6.47516 2.59435 5.52933C3.52268 4.5835 5.01602 4.5835 8.00352 4.5835H11.1727C14.1602 4.5835 15.6543 4.5835 16.5827 5.52933C17.2968 6.25683 17.461 7.326 17.4993 9.16683" stroke="#F9FBF9" stroke-width="1.5" stroke-linecap="round" stroke-linejoin="round"/>
<path d="M13.332 4.58341L13.2487 4.32508C12.8362 3.04175 12.6304 2.40008 12.1395 2.03341C11.6479 1.66675 10.9962 1.66675 9.69036 1.66675H9.4712C8.16703 1.66675 7.51453 1.66675 7.0237 2.03341C6.53203 2.40008 6.3262 3.04175 5.9137 4.32508L5.83203 4.58341M14.2579 11.0459C14.412 10.9042 14.4887 10.8334 14.582 10.8334C14.6754 10.8334 14.752 10.9042 14.9062 11.0459L15.5004 11.5934C15.572 11.6592 15.6079 11.6926 15.652 11.7084C15.697 11.7251 15.7454 11.7234 15.8437 11.7192L16.6454 11.6876C16.852 11.6792 16.9554 11.6759 17.0262 11.7351C17.097 11.7942 17.1112 11.8967 17.1387 12.1017L17.2487 12.9234C17.262 13.0184 17.2679 13.0651 17.2912 13.1067C17.3145 13.1467 17.352 13.1759 17.427 13.2351L18.0737 13.7434C18.2337 13.8701 18.3137 13.9326 18.3295 14.0226C18.3454 14.1126 18.2912 14.1992 18.1845 14.3726L17.7462 15.0784C17.6962 15.1592 17.6712 15.2001 17.6629 15.2451C17.6545 15.2901 17.6645 15.3376 17.6845 15.4309L17.8587 16.2459C17.9004 16.4459 17.922 16.5459 17.8762 16.6259C17.8304 16.7059 17.7329 16.7376 17.5387 16.8009L16.767 17.0517C16.6754 17.0817 16.6287 17.0967 16.5929 17.1267C16.557 17.1576 16.5345 17.2009 16.4904 17.2867L16.1137 18.0126C16.0179 18.1984 15.9695 18.2909 15.882 18.3226C15.7945 18.3542 15.6987 18.3142 15.5054 18.2342L14.7654 17.9276C14.6745 17.8901 14.6295 17.8709 14.582 17.8709C14.5345 17.8709 14.4895 17.8901 14.3987 17.9276L13.6587 18.2342C13.4654 18.3142 13.3695 18.3542 13.282 18.3226C13.1945 18.2909 13.1462 18.1976 13.0504 18.0126L12.6737 17.2867C12.6287 17.2009 12.607 17.1576 12.5712 17.1276C12.5354 17.0976 12.4887 17.0817 12.397 17.0526L11.6254 16.8009C11.4312 16.7376 11.3337 16.7059 11.2879 16.6259C11.242 16.5459 11.2629 16.4467 11.3054 16.2459L11.4804 15.4309C11.4995 15.3376 11.5095 15.2909 11.5012 15.2459C11.4841 15.1856 11.4558 15.1291 11.4179 15.0792L10.9804 14.3726C10.872 14.1992 10.8187 14.1126 10.8345 14.0226C10.8504 13.9326 10.9304 13.8701 11.0904 13.7442L11.737 13.2359C11.812 13.1759 11.8495 13.1467 11.8729 13.1059C11.8962 13.0651 11.902 13.0184 11.9145 12.9226L12.0254 12.1017C12.0529 11.8976 12.067 11.7942 12.1379 11.7351C12.2087 11.6759 12.312 11.6792 12.5187 11.6876L13.3212 11.7192C13.4187 11.7234 13.467 11.7251 13.512 11.7084C13.5562 11.6917 13.592 11.6592 13.6637 11.5934L14.2579 11.0459Z" stroke="#F9FBF9" stroke-width="1.5" stroke-linecap="round" stroke-linejoin="round"/>
</g>
<defs>
<clipPath id="clip0_101_1713">
<rect width="20" height="20" fill="white"/>
</clipPath>
</defs>
</svg>
