<svg width="20" height="20" viewBox="0 0 20 20" fill="none" xmlns="http://www.w3.org/2000/svg">
<path d="M2.5 7.08325C2.5 5.91825 2.5 5.33575 2.69 4.87659C2.81564 4.57318 2.99982 4.29749 3.23203 4.06528C3.46424 3.83308 3.73992 3.64889 4.04333 3.52325C4.5025 3.33325 5.085 3.33325 6.25 3.33325H13.75C14.915 3.33325 15.4975 3.33325 15.9567 3.52325C16.2601 3.64889 16.5358 3.83308 16.768 4.06528C17.0002 4.29749 17.1844 4.57318 17.31 4.87659C17.5 5.33575 17.5 5.91825 17.5 7.08325V7.70825C17.5 7.87401 17.4342 8.03298 17.3169 8.15019C17.1997 8.2674 17.0408 8.33325 16.875 8.33325H16.6667C16.2246 8.33325 15.8007 8.50885 15.4882 8.82141C15.1756 9.13397 15 9.55789 15 9.99992C15 10.4419 15.1756 10.8659 15.4882 11.1784C15.8007 11.491 16.2246 11.6666 16.6667 11.6666H16.875C17.0408 11.6666 17.1997 11.7324 17.3169 11.8496C17.4342 11.9669 17.5 12.1258 17.5 12.2916V12.9166C17.5 14.0816 17.5 14.6641 17.31 15.1233C17.1844 15.4267 17.0002 15.7023 16.768 15.9346C16.5358 16.1668 16.2601 16.3509 15.9567 16.4766C15.4975 16.6666 14.915 16.6666 13.75 16.6666H6.25C5.085 16.6666 4.5025 16.6666 4.04333 16.4766C3.73992 16.3509 3.46424 16.1668 3.23203 15.9346C2.99982 15.7023 2.81564 15.4267 2.69 15.1233C2.5 14.6641 2.5 14.0816 2.5 12.9166V12.2916C2.5 12.1258 2.56585 11.9669 2.68306 11.8496C2.80027 11.7324 2.95924 11.6666 3.125 11.6666H3.33333C3.77536 11.6666 4.19928 11.491 4.51184 11.1784C4.82441 10.8659 5 10.4419 5 9.99992C5 9.55789 4.82441 9.13397 4.51184 8.82141C4.19928 8.50885 3.77536 8.33325 3.33333 8.33325H3.125C2.95924 8.33325 2.80027 8.2674 2.68306 8.15019C2.56585 8.03298 2.5 7.87401 2.5 7.70825V7.08325Z" stroke="#F9FBF9"/>
<path d="M9.63148 8.90739C9.77148 8.54489 9.84148 8.36322 9.95481 8.33822C9.9851 8.33257 10.0162 8.33257 10.0465 8.33822C10.1598 8.36322 10.2298 8.54489 10.3698 8.90656C10.4498 9.11322 10.4898 9.21656 10.564 9.28656C10.5846 9.30632 10.6072 9.32392 10.6315 9.33906C10.7181 9.39239 10.8256 9.40239 11.0406 9.42239C11.4048 9.45572 11.5873 9.47322 11.6423 9.58072C11.6537 9.60329 11.6615 9.62746 11.6656 9.65239C11.684 9.77322 11.5506 9.89989 11.2823 10.1524L11.2081 10.2224C11.0831 10.3407 11.0206 10.3999 10.984 10.4732C10.9629 10.5181 10.9485 10.5658 10.9415 10.6149C10.9298 10.6966 10.9481 10.7816 10.9848 10.9532L10.9981 11.0149C11.064 11.3224 11.0965 11.4757 11.0556 11.5516C11.0381 11.5846 11.0123 11.6126 10.9808 11.6328C10.9493 11.6529 10.913 11.6646 10.8756 11.6666C10.7923 11.6707 10.6748 11.5716 10.439 11.3724C10.2848 11.2407 10.2073 11.1757 10.1206 11.1499C10.0424 11.1264 9.95891 11.1264 9.88064 11.1499C9.79398 11.1749 9.71647 11.2416 9.56147 11.3724C9.32647 11.5716 9.20898 11.6707 9.12564 11.6666C9.08826 11.6646 9.05203 11.6529 9.02049 11.6328C8.98894 11.6126 8.96315 11.5846 8.94564 11.5516C8.90481 11.4766 8.93731 11.3224 9.00398 11.0149L9.01648 10.9532C9.05314 10.7824 9.07148 10.6966 9.05981 10.6149C9.05274 10.5658 9.03842 10.5181 9.01731 10.4732C8.98064 10.3999 8.91814 10.3399 8.79314 10.2232L8.71814 10.1524C8.45148 9.89989 8.31731 9.77322 8.33564 9.65239C8.33975 9.62746 8.34762 9.60329 8.35897 9.58072C8.41481 9.47322 8.59648 9.45572 8.96064 9.42239C9.17564 9.40239 9.28314 9.39239 9.36897 9.33906C9.39351 9.32396 9.41641 9.30637 9.43731 9.28656C9.51231 9.21656 9.55148 9.11322 9.63148 8.90656V8.90739Z" fill="#F9FBF9" stroke="#F9FBF9"/>
</svg>
