<svg width="16" height="16" viewBox="0 0 16 16" fill="none" xmlns="http://www.w3.org/2000/svg">
<path d="M8.31358 1.01318L5.64989 3.67687V4.29559L8.9323 1.01318H8.31358ZM9.61133 1.12968L5.76639 4.97462L11.0255 10.2337L14.8704 6.38881L9.6113 1.12975L9.61133 1.12968ZM14.987 7.06781L11.7045 10.3502H12.3232L14.9869 7.68653V7.06781H14.987ZM7.48999 7.49365L7.18061 7.80303L8.19708 8.81953L8.50646 8.51015L7.48999 7.49365ZM6.78289 8.20075L6.04764 8.93597H7.51811L6.78289 8.20075ZM5.48514 9.49846L4.63343 10.3502H6.66636L7.51811 9.49846H5.48514ZM4.07093 10.9127L3.21924 11.7644H5.25218L6.10386 10.9127H4.07093ZM3.21924 12.3269L3.95446 13.0621L4.68968 12.3269H3.21924ZM2.54021 12.4434L2.23089 12.7527L3.24736 13.7692L3.55668 13.4599L2.54021 12.4434ZM1.32874 13.034L1.09424 13.7375L2.26261 14.9059L2.96611 14.6714V14.2834L1.71661 13.034H1.32874Z" fill="white"/>
</svg>
