<svg width="20" height="20" viewBox="0 0 20 20" fill="none" xmlns="http://www.w3.org/2000/svg">
<path d="M5.99333 11.3467H6.88333C6.97278 11.3467 7.05611 11.3311 7.13333 11.3C7.21111 11.2689 7.28611 11.2169 7.35833 11.1442L11.5483 6.955C11.62 6.87278 11.6736 6.78667 11.7092 6.69667C11.7447 6.60667 11.7628 6.51722 11.7633 6.42833C11.7639 6.33944 11.745 6.25139 11.7067 6.16417C11.6694 6.0775 11.6167 5.99278 11.5483 5.91L10.7817 5.11833C10.7106 5.04667 10.6281 4.99306 10.5342 4.9575C10.4397 4.92194 10.3467 4.90417 10.255 4.90417C10.1661 4.90417 10.0767 4.92194 9.98667 4.9575C9.89667 4.99306 9.81028 5.04667 9.7275 5.11833L5.5225 9.30833C5.45028 9.38111 5.39861 9.45611 5.3675 9.53333C5.33639 9.61111 5.32083 9.695 5.32083 9.785V10.6742C5.32083 10.8675 5.38472 11.0281 5.5125 11.1558C5.64028 11.2836 5.80056 11.3467 5.99333 11.3467ZM6.0575 10.6083V9.81667L8.93083 6.94333L9.31583 7.35L9.70667 7.75083L6.84917 10.6083H6.0575ZM9.31583 7.35L9.70667 7.75083L8.93167 6.9425L9.31583 7.35ZM9.84083 11.3458H14.2633C14.3817 11.3458 14.4806 11.3058 14.56 11.2258C14.64 11.1464 14.68 11.0475 14.68 10.9292C14.68 10.8103 14.64 10.7111 14.56 10.6317C14.4806 10.5522 14.3814 10.5125 14.2625 10.5125H10.675L9.84083 11.3458ZM5.065 14.1667L3.645 15.5867C3.43444 15.7972 3.19111 15.8456 2.915 15.7317C2.63889 15.6178 2.50056 15.4108 2.5 15.1108V3.84667C2.5 3.46278 2.62861 3.1425 2.88583 2.88583C3.14306 2.62917 3.46333 2.50056 3.84667 2.5H16.1542C16.5375 2.5 16.8578 2.62861 17.115 2.88583C17.3722 3.14306 17.5006 3.46333 17.5 3.84667V12.8208C17.5 13.2042 17.3717 13.5244 17.115 13.7817C16.8583 14.0389 16.5381 14.1672 16.1542 14.1667H5.065ZM4.70917 13.3333H16.155C16.2828 13.3333 16.4003 13.28 16.5075 13.1733C16.6147 13.0667 16.6681 12.9492 16.6675 12.8208V3.84583C16.6675 3.71806 16.6142 3.60056 16.5075 3.49333C16.4008 3.38611 16.2831 3.33278 16.1542 3.33333H3.84583C3.71806 3.33333 3.60056 3.38667 3.49333 3.49333C3.38611 3.6 3.33278 3.7175 3.33333 3.84583V14.7042L4.70917 13.3333Z" fill="#F9FBF9"/>
</svg>
