<svg width="20" height="20" viewBox="0 0 20 20" fill="none" xmlns="http://www.w3.org/2000/svg">
<path d="M15.049 7.1135L14.2157 6.60266C13.3798 6.09016 12.9623 5.8335 12.5007 5.8335C12.039 5.8335 11.6215 6.09016 10.7857 6.60266L9.95232 7.1135C9.16148 7.5985 8.76648 7.841 8.55065 8.23183C8.33398 8.6235 8.33398 9.09433 8.33398 10.0368V14.9243C8.33398 16.5318 8.33398 17.3352 8.82232 17.8343C9.31065 18.3335 10.0957 18.3335 11.6673 18.3335H13.334C14.9057 18.3335 15.6907 18.3335 16.179 17.8335C16.6673 17.3352 16.6673 16.5318 16.6673 14.9252V10.0368C16.6673 9.09433 16.6673 8.62266 16.4507 8.23183C16.234 7.841 15.8398 7.5985 15.049 7.1135Z" stroke="#F9FBF9" stroke-width="1.5" stroke-linecap="round" stroke-linejoin="round"/>
<path d="M11.6664 5.92349C11.1339 5.41265 10.8164 5.14432 10.4139 5.04349C9.94719 4.92599 9.45719 5.05765 8.47636 5.32099L7.49969 5.58265C6.57219 5.83265 6.10802 5.95599 5.78636 6.26349C5.46386 6.57182 5.33886 7.00849 5.08969 7.88265L3.79469 12.4143C3.36969 13.9043 3.15636 14.6493 3.51802 15.2368C3.82802 15.741 5.06969 16.3618 6.25052 16.6668" stroke="#F9FBF9" stroke-width="1.5" stroke-linecap="round" stroke-linejoin="round"/>
<path d="M12.0798 8.33341C12.7807 7.86674 13.4032 7.11924 13.7898 6.18924C14.5882 4.26841 14.079 2.29758 12.654 1.78841C11.2282 1.27841 9.42482 2.42174 8.62648 4.34258C8.49698 4.65222 8.39899 4.97413 8.33398 5.30341" stroke="#F9FBF9" stroke-width="1.5" stroke-linecap="round" stroke-linejoin="round"/>
</svg>
