<svg width="16" height="16" viewBox="0 0 16 16" fill="none" xmlns="http://www.w3.org/2000/svg">
<path d="M14.5 5H12V6H14.5V9H11V10H12.5V11.071C12.0287 11.1927 11.6179 11.4821 11.3447 11.885C11.0715 12.2879 10.9546 12.7766 11.0159 13.2595C11.0773 13.7424 11.3126 14.1864 11.6779 14.5082C12.0431 14.83 12.5132 15.0075 13 15.0075C13.4868 15.0075 13.9569 14.83 14.3221 14.5082C14.6874 14.1864 14.9227 13.7424 14.9841 13.2595C15.0454 12.7766 14.9285 12.2879 14.6553 11.885C14.3821 11.4821 13.9713 11.1927 13.5 11.071V10H14.5C14.7651 9.9996 15.0192 9.89412 15.2067 9.70667C15.3941 9.51922 15.4996 9.26509 15.5 9V6C15.5 5.73478 15.3946 5.48043 15.2071 5.29289C15.0196 5.10536 14.7652 5 14.5 5ZM14 13C14 13.1978 13.9414 13.3911 13.8315 13.5556C13.7216 13.72 13.5654 13.8482 13.3827 13.9239C13.2 13.9996 12.9989 14.0194 12.8049 13.9808C12.6109 13.9422 12.4327 13.847 12.2929 13.7071C12.153 13.5673 12.0578 13.3891 12.0192 13.1951C11.9806 13.0011 12.0004 12.8 12.0761 12.6173C12.1518 12.4346 12.28 12.2784 12.4444 12.1685C12.6089 12.0586 12.8022 12 13 12C13.2651 12.0004 13.5192 12.1059 13.7067 12.2933C13.8941 12.4808 13.9996 12.7349 14 13ZM9.5 3H7V4H9.5V7H6V8H7.5V11.071C7.02867 11.1927 6.61791 11.4821 6.3447 11.885C6.07149 12.2879 5.9546 12.7766 6.01594 13.2595C6.07728 13.7424 6.31263 14.1864 6.67788 14.5082C7.04314 14.83 7.51321 15.0075 8 15.0075C8.48679 15.0075 8.95686 14.83 9.32212 14.5082C9.68737 14.1864 9.92272 13.7424 9.98406 13.2595C10.0454 12.7766 9.92851 12.2879 9.6553 11.885C9.3821 11.4821 8.97133 11.1927 8.5 11.071V8H9.5C9.76522 8 10.0196 7.89464 10.2071 7.70711C10.3946 7.51957 10.5 7.26522 10.5 7V4C10.5 3.73478 10.3946 3.48043 10.2071 3.29289C10.0196 3.10536 9.76522 3 9.5 3ZM9 13C9 13.1978 8.94135 13.3911 8.83147 13.5556C8.72159 13.72 8.56541 13.8482 8.38268 13.9239C8.19996 13.9996 7.99889 14.0194 7.80491 13.9808C7.61093 13.9422 7.43275 13.847 7.29289 13.7071C7.15304 13.5673 7.0578 13.3891 7.01921 13.1951C6.98063 13.0011 7.00043 12.8 7.07612 12.6173C7.15181 12.4346 7.27998 12.2784 7.44443 12.1685C7.60888 12.0586 7.80222 12 8 12C8.26509 12.0004 8.51922 12.1059 8.70667 12.2933C8.89412 12.4808 8.9996 12.7349 9 13ZM4.5 1H1.5C1.23478 1 0.98043 1.10536 0.792893 1.29289C0.605357 1.48043 0.5 1.73478 0.5 2V5C0.5 5.26522 0.605357 5.51957 0.792893 5.70711C0.98043 5.89464 1.23478 6 1.5 6H2.5V11.071C2.02867 11.1927 1.61791 11.4821 1.3447 11.885C1.07149 12.2879 0.954603 12.7766 1.01594 13.2595C1.07728 13.7424 1.31263 14.1864 1.67788 14.5082C2.04314 14.83 2.51321 15.0075 3 15.0075C3.48679 15.0075 3.95686 14.83 4.32212 14.5082C4.68737 14.1864 4.92272 13.7424 4.98406 13.2595C5.0454 12.7766 4.92851 12.2879 4.6553 11.885C4.38209 11.4821 3.97133 11.1927 3.5 11.071V6H4.5C4.76522 6 5.01957 5.89464 5.20711 5.70711C5.39464 5.51957 5.5 5.26522 5.5 5V2C5.5 1.73478 5.39464 1.48043 5.20711 1.29289C5.01957 1.10536 4.76522 1 4.5 1ZM4 13C4 13.1978 3.94135 13.3911 3.83147 13.5556C3.72159 13.72 3.56541 13.8482 3.38268 13.9239C3.19996 13.9996 2.99889 14.0194 2.80491 13.9808C2.61093 13.9422 2.43275 13.847 2.29289 13.7071C2.15304 13.5673 2.0578 13.3891 2.01921 13.1951C1.98063 13.0011 2.00043 12.8 2.07612 12.6173C2.15181 12.4346 2.27998 12.2784 2.44443 12.1685C2.60888 12.0586 2.80222 12 3 12C3.26522 12 3.51957 12.1054 3.70711 12.2929C3.89464 12.4804 4 12.7348 4 13ZM1.5 5V2H4.5L4.501 5H1.5Z" fill="white"/>
</svg>
