<svg width="22" height="22" viewBox="0 0 22 22" fill="none" xmlns="http://www.w3.org/2000/svg">
<path d="M0.916138 16.9417L4.75671 20.1427C5.3215 20.6129 6.03322 20.8703 6.76814 20.8702H16.8929C17.6157 20.8702 18.2019 20.2841 18.2019 19.5612C18.2019 18.1155 17.0296 16.9417 15.5823 16.9417H8.54385M13.0664 1.62022C12.858 1.62022 12.6582 1.703 12.5108 1.85035C12.3635 1.9977 12.2807 2.19755 12.2807 2.40594V4.61694H10.0713C9.8629 4.61694 9.66305 4.69972 9.5157 4.84707C9.36835 4.99442 9.28557 5.19427 9.28557 5.40265V7.95622C9.28557 8.16461 9.36835 8.36446 9.5157 8.51181C9.66305 8.65916 9.8629 8.74194 10.0713 8.74194H12.2807V10.9514C12.2807 11.1598 12.3635 11.3596 12.5108 11.5069C12.6582 11.6543 12.858 11.7371 13.0664 11.7371H15.62C15.8284 11.7371 16.0282 11.6543 16.1756 11.5069C16.3229 11.3596 16.4057 11.1598 16.4057 10.9514V8.74194H18.6151C18.8235 8.74194 19.0234 8.65916 19.1707 8.51181C19.3181 8.36446 19.4009 8.16461 19.4009 7.95622V5.40265C19.4009 5.19427 19.3181 4.99442 19.1707 4.84707C19.0234 4.69972 18.8235 4.61694 18.6151 4.61694H16.4057V2.40437C16.4057 2.19598 16.3229 1.99613 16.1756 1.84878C16.0282 1.70143 15.8284 1.61865 15.62 1.61865L13.0664 1.62022Z" stroke="#61C378" stroke-linecap="round" stroke-linejoin="round"/>
<path d="M5.63042 15.3702L6.809 16.5488C6.96377 16.7036 7.14751 16.8263 7.34973 16.9101C7.55195 16.9939 7.76869 17.037 7.98757 17.037C8.20645 17.037 8.42318 16.9939 8.6254 16.9101C8.82762 16.8263 9.01137 16.7036 9.16614 16.5488C9.32091 16.394 9.44368 16.2103 9.52744 16.0081C9.61121 15.8058 9.65432 15.5891 9.65432 15.3702C9.65432 15.1513 9.61121 14.9346 9.52744 14.7324C9.44368 14.5302 9.32091 14.3464 9.16614 14.1917L7.337 12.3625C6.74773 11.7731 5.94846 11.4418 5.115 11.4417H0.916138" stroke="#61C378" stroke-linecap="round" stroke-linejoin="round"/>
</svg>
