<svg width="30" height="31" viewBox="0 0 30 31" fill="none" xmlns="http://www.w3.org/2000/svg">
<path d="M6.25 6.75H22.5C23.4946 6.75 24.4484 7.14509 25.1517 7.84835C25.8549 8.55161 26.25 9.50544 26.25 10.5V21.75C26.25 22.7446 25.8549 23.6984 25.1517 24.4017C24.4484 25.1049 23.4946 25.5 22.5 25.5H6.25C5.25544 25.5 4.30161 25.1049 3.59835 24.4017C2.89509 23.6984 2.5 22.7446 2.5 21.75V10.5C2.5 9.50544 2.89509 8.55161 3.59835 7.84835C4.30161 7.14509 5.25544 6.75 6.25 6.75ZM6.25 8C5.625 8 5.075 8.2125 4.65 8.5875L14.375 14.875L24.1 8.5875C23.675 8.2125 23.125 8 22.5 8H6.25ZM14.375 16.3875L3.9125 9.6C3.8125 9.875 3.75 10.1875 3.75 10.5V21.75C3.75 22.413 4.01339 23.0489 4.48223 23.5178C4.95107 23.9866 5.58696 24.25 6.25 24.25H22.5C23.163 24.25 23.7989 23.9866 24.2678 23.5178C24.7366 23.0489 25 22.413 25 21.75V10.5C25 10.1875 24.9375 9.875 24.8375 9.6L14.375 16.3875Z" fill="#FF1618"/>
</svg>
