<svg width="20" height="20" viewBox="0 0 20 20" fill="none" xmlns="http://www.w3.org/2000/svg">
<path d="M15.7785 11.6208L15.2202 8.58075C14.9785 7.26742 14.8577 6.61075 14.3802 6.22242C13.9027 5.83409 13.216 5.83325 11.8435 5.83325H8.15518C6.78268 5.83325 6.09685 5.83325 5.61851 6.22242C5.14101 6.61075 5.02018 7.26742 4.77851 8.58075L4.22018 11.6208C3.72018 14.3466 3.46935 15.7099 4.24018 16.6041C5.01101 17.4999 6.43601 17.4999 9.28435 17.4999H10.7143C13.5627 17.4999 14.9877 17.4999 15.7585 16.6049C16.5293 15.7099 16.2793 14.3466 15.7785 11.6216" stroke="#F9FBF9" stroke-width="1.5" stroke-linecap="round" stroke-linejoin="round"/>
<path d="M9.99935 8.75V14.1667M7.91602 12.5L9.99935 14.5833L12.0827 12.5M17.4993 9.16667C17.6281 9.10243 17.7448 9.01645 17.8443 8.9125C18.3327 8.4075 18.3327 7.59167 18.3327 5.96C18.3327 4.32833 18.3327 3.51333 17.8443 3.00667C17.356 2.5 16.571 2.5 14.9993 2.5H4.99935C3.42768 2.5 2.64268 2.5 2.15435 3.00667C1.66602 3.51333 1.66602 4.32917 1.66602 5.96C1.66602 7.59083 1.66602 8.40667 2.15435 8.9125C2.25435 9.01694 2.36935 9.10167 2.49935 9.16667" stroke="#F9FBF9" stroke-width="1.5" stroke-linecap="round" stroke-linejoin="round"/>
</svg>
